<svg width="18" height="18" viewBox="0 0 18 18" fill="none" xmlns="http://www.w3.org/2000/svg">
<path fill-rule="evenodd" clip-rule="evenodd" d="M15.8008 0C17.0146 0 18 0.985431 18 2.19917V15.8008C18 17.0146 17.0146 18 15.8008 18H2.19917C0.985431 18 0 17.0146 0 15.8008V2.19917C0 0.985431 0.985395 0 2.19917 0L15.8008 0ZM16.0204 11.6246C16.0527 11.1386 16.0131 10.6746 15.9006 10.2303C15.7871 9.78529 15.605 9.38852 15.35 9.0417C15.0947 8.69418 14.7695 8.41659 14.3735 8.21156C13.9754 8.00385 13.5117 7.90201 12.9818 7.90201C12.5018 7.90201 12.0684 7.98722 11.6754 8.15664C11.2826 8.32705 10.9454 8.56006 10.6608 8.8553C10.3769 9.14886 10.1605 9.49901 10.0048 9.90479C9.85167 10.3092 9.77344 10.7466 9.77344 11.2149C9.77344 11.6992 9.84868 12.1462 9.99813 12.5499C10.1492 12.9557 10.3613 13.3012 10.6342 13.5934C10.9145 13.8847 11.2473 14.1077 11.6457 14.2671C12.0445 14.4242 12.4885 14.5041 12.9818 14.5041C13.6898 14.5041 14.2969 14.342 14.7952 14.0168C15.2994 13.6926 15.6686 13.1544 15.9122 12.4005H14.3971C14.3385 12.5942 14.1867 12.781 13.9374 12.9557C13.6858 13.1308 13.3862 13.2183 13.0394 13.2183C12.5567 13.2183 12.1843 13.0918 11.9263 12.8402C11.6681 12.5885 11.501 12.1199 11.501 11.6246H16.0204ZM6.16068 14.342C6.54881 14.342 6.92726 14.2931 7.29169 14.1966C7.66052 14.0997 7.98902 13.9506 8.27561 13.7479C8.55989 13.5468 8.79055 13.2862 8.95996 12.9647C9.12805 12.6468 9.21193 12.2694 9.21193 11.8306C9.21193 11.2895 9.08312 10.8281 8.8205 10.4423C8.55922 10.0592 8.16445 9.78993 7.63288 9.63683C8.02333 9.45177 8.3159 9.21379 8.51492 8.92354C8.71299 8.63262 8.8115 8.26883 8.8115 7.83345C8.8115 7.43102 8.74526 7.09053 8.61378 6.81859C8.47864 6.54265 8.28992 6.32363 8.04896 6.15885C7.80395 5.99411 7.51472 5.87395 7.17522 5.80205C6.83403 5.72784 6.46056 5.69222 6.04684 5.69222H1.96875V14.342H6.16068ZM5.94366 10.4869C6.35341 10.4869 6.68658 10.5811 6.9369 10.7709C7.18619 10.9629 7.31201 11.2798 7.31201 11.7255C7.31201 11.9528 7.27506 12.1412 7.19818 12.2863C7.12161 12.4321 7.01579 12.5473 6.88863 12.6312C6.7608 12.7184 6.61001 12.7776 6.43961 12.8146C6.27184 12.8522 6.09343 12.8688 5.90604 12.8688H3.87299V10.4869H5.94366ZM13.9031 9.54929C13.6984 9.3233 13.3526 9.20078 12.9302 9.20078C12.6553 9.20078 12.4279 9.24705 12.2455 9.34127C12.0671 9.43447 11.9214 9.54996 11.8098 9.68643C11.6987 9.82488 11.6234 9.97134 11.5792 10.1278C11.5352 10.2802 11.5086 10.4184 11.501 10.5405H14.2996C14.2586 10.1018 14.1085 9.77731 13.9031 9.54929ZM5.65506 7.16573C5.82385 7.16576 5.98796 7.17772 6.14504 7.20834C6.30447 7.23597 6.44228 7.28656 6.5641 7.36014C6.68658 7.43102 6.78411 7.53188 6.85765 7.66104C6.92856 7.79017 6.96351 7.9566 6.96351 8.15763C6.96351 8.52044 6.85765 8.78439 6.63866 8.9445C6.41732 9.10692 6.13772 9.18683 5.80054 9.18683H3.87299V7.16573H5.65506ZM14.655 7.12614V6.27269H11.1488V7.12614H14.655Z" fill="#744BFC"/>
</svg>
