<svg width="18" height="18" viewBox="0 0 18 18" fill="none" xmlns="http://www.w3.org/2000/svg">
<rect width="18" height="18" rx="1.93846" fill="#744BFC"/>
<path d="M6.57706 4.15384H11.423C11.7412 4.15384 12.0563 4.21652 12.3503 4.33829C12.6443 4.46007 12.9114 4.63856 13.1364 4.86357C13.3615 5.08859 13.54 5.35572 13.6617 5.64971C13.7835 5.94371 13.8462 6.25881 13.8462 6.57703V11.423C13.8462 11.7412 13.7835 12.0563 13.6617 12.3503C13.54 12.6443 13.3615 12.9114 13.1364 13.1364C12.9114 13.3614 12.6443 13.5399 12.3503 13.6617C12.0563 13.7835 11.7412 13.8462 11.423 13.8462H6.57706C5.93439 13.8462 5.31804 13.5909 4.8636 13.1364C4.40917 12.682 4.15387 12.0656 4.15387 11.423V6.57703C4.15387 5.93436 4.40917 5.31801 4.8636 4.86357C5.31804 4.40914 5.93439 4.15384 6.57706 4.15384Z" fill="white"/>
<path d="M10.9383 8.69438C10.9981 9.0977 10.9292 9.50961 10.7414 9.87153C10.5536 10.2334 10.2565 10.5269 9.8923 10.7102C9.5281 10.8936 9.11537 10.9574 8.71282 10.8926C8.31026 10.8278 7.93838 10.6378 7.65007 10.3494C7.36176 10.0611 7.1717 9.68926 7.10693 9.2867C7.04215 8.88415 7.10596 8.47142 7.28927 8.10722C7.47259 7.74302 7.76608 7.4459 8.12799 7.25811C8.48991 7.07033 8.90182 7.00144 9.30514 7.06126C9.71653 7.12227 10.0974 7.31397 10.3915 7.60805C10.6855 7.90213 10.8773 8.28299 10.9383 8.69438Z" fill="white" stroke="#744BFC" stroke-width="0.913847" stroke-linecap="round" stroke-linejoin="round"/>
</svg>
