<svg width="125" height="37" viewBox="0 0 125 37" fill="none" xmlns="http://www.w3.org/2000/svg">
<g clip-path="url(#clip0_44_96)">
<path d="M26.7255 0.109781C22.3173 0.171977 18.6964 0.222996 18.6776 0.229212C18.659 0.235439 20.4006 1.99318 22.5445 4.14096L26.4367 8.03976L33.1079 8.05898L39.773 8.07774L40.1815 8.22252C40.6868 8.39126 41.1502 8.66636 41.5407 9.02927C41.931 9.3923 42.2395 9.83467 42.4452 10.3269C43.3256 12.2731 42.5775 14.73 40.8421 15.6051C40.094 15.9783 39.899 16.0083 37.7924 16.0145C36.1453 16.0207 35.8243 16.0394 35.5356 16.1345C34.9446 16.3298 34.7241 16.6763 34.9004 17.1422C34.9756 17.3437 36.8307 19.2396 39.3334 21.6828C41.5469 23.8367 41.4649 23.7865 42.3074 23.5097C42.5713 23.4213 43.3007 23.0942 43.9217 22.7919C47.7822 20.896 50.046 18.2313 50.7437 14.7481C50.918 13.6571 50.9624 12.5492 50.876 11.4477C50.5389 8.64048 49.4385 5.97992 47.6947 3.75662C46.2425 2.03677 43.6833 0.789666 40.5398 0.273403C38.5524 -0.060611 38.9485 -0.0544287 26.7255 0.109781Z" fill="#744BFC"/>
<path d="M7.23596 0.34301C2.24975 0.405206 0.43929 0.450031 0.325671 0.506632C0.230105 0.559357 0.154763 0.64236 0.111489 0.742701C0.0682146 0.843031 0.0594978 0.954979 0.0866675 1.06084C0.111502 1.14854 1.61463 2.70475 3.5387 4.62613L6.95349 8.04711H22.7348L18.8363 4.14163L14.9348 0.236023L14.4629 0.24225C14.2071 0.248478 10.9506 0.292625 7.23596 0.34301Z" fill="#744BFC"/>
<path d="M28.197 18.5534C26.9521 19.7632 25.8079 20.8966 25.644 21.0732C25.2981 21.4383 25.2292 21.6529 25.3484 21.9111C25.3988 22.0057 28.649 25.2874 32.5728 29.1929C38.9057 35.4981 39.747 36.3173 40.055 36.4491C40.3816 36.5941 40.5014 36.6065 42.3187 36.657C44.9592 36.7391 49.1345 36.6949 49.4232 36.581C49.542 36.5532 49.6527 36.4982 49.7467 36.4203C49.8405 36.3423 49.9151 36.2436 49.9645 36.1319C50.0138 36.0201 50.0367 35.8985 50.0311 35.7764C50.0256 35.6543 49.9917 35.5352 49.9324 35.4284C49.7562 35.0696 31.384 16.6135 31.0512 16.4623C30.5544 16.2421 30.6551 16.1662 28.197 18.5534Z" fill="#744BFC"/>
<path d="M17.6527 17.9171C17.5906 17.9365 16.4078 19.1395 15.0245 20.5918C12.8807 22.8534 12.5094 23.2664 12.528 23.4076C12.5404 23.527 14.1379 25.1586 18.91 29.902C24.001 34.9663 25.336 36.2576 25.5812 36.3708C25.8705 36.5095 26.0022 36.5158 28.4925 36.5848C29.926 36.6228 32.001 36.6414 33.1074 36.629C34.8676 36.6103 35.1444 36.5979 35.3208 36.5045C35.464 36.4392 35.5844 36.3322 35.6662 36.1973C35.7481 36.0626 35.7876 35.9063 35.7796 35.7488V35.4378L27.2159 26.8337C22.4973 22.1033 18.5331 18.1473 18.3996 18.0528C18.2963 17.9696 18.1738 17.9135 18.0433 17.8898C17.9129 17.8662 17.7786 17.8756 17.6527 17.9171Z" fill="#744BFC"/>
<path d="M10.2146 25.3559C10.1016 25.4125 7.80628 27.6423 5.10923 30.3008C-0.235227 35.5667 -0.0526871 35.3589 0.0224383 35.9952C0.0226105 36.0789 0.040642 36.1616 0.0753395 36.2377C0.110037 36.3137 0.160581 36.3814 0.223584 36.4363L0.386874 36.5813H9.97L10.2028 36.4363C10.327 36.361 11.6488 35.0884 13.1327 33.6142C15.484 31.2836 15.8491 30.893 15.9118 30.6666C16.0564 30.1123 16.0688 30.1249 13.5351 27.6617C12.2648 26.427 11.1397 25.3751 11.0261 25.3247C10.8972 25.2687 10.7573 25.2424 10.6168 25.2477C10.4764 25.2532 10.3389 25.2901 10.2146 25.3559Z" fill="#744BFC"/>
<path d="M74.2098 19.0163H70.7153L67.1459 13.89C66.9213 13.915 66.6966 13.915 66.4719 13.915H62.5282V19.0163H59.2833V1.51196H66.4719C71.0647 1.51196 73.9102 3.86254 73.9102 7.73845C73.9102 10.3892 72.5623 12.3396 70.191 13.2649L74.2098 19.0163ZM70.6404 7.73845C70.6404 5.53795 69.1677 4.26264 66.3222 4.26264H62.5282V11.2393H66.3222C69.1677 11.2393 70.6404 9.93899 70.6404 7.73845ZM90.6199 19.0163L88.8727 14.9653H80.1364L78.4142 19.0163H75.0695L82.932 1.51196H86.127L94.0145 19.0163H90.6199ZM81.2347 12.4146H87.7993L84.5046 4.76276L81.2347 12.4146ZM101.653 19.2663C98.9324 19.2663 96.2116 18.4161 94.7639 17.1659L95.8871 14.6402C97.2849 15.7655 99.5064 16.5657 101.653 16.5657C104.374 16.5657 105.522 15.5904 105.522 14.2901C105.522 10.5142 95.1384 12.9898 95.1384 6.4882C95.1384 3.66249 97.3847 1.2619 102.177 1.2619C104.274 1.2619 106.47 1.81204 107.993 2.81228L106.97 5.3379C105.397 4.41268 103.675 3.96257 102.152 3.96257C99.4565 3.96257 98.3582 5.01282 98.3582 6.33811C98.3582 10.0641 108.717 7.63843 108.717 14.0651C108.717 16.8658 106.445 19.2663 101.653 19.2663ZM115.235 19.0163V4.26264H109.444V1.51196H124.271V4.26264H118.48V19.0163H115.235Z" fill="#744BFC"/>
<path d="M71.6771 36.4666H70.1367L70.1207 28.2681L66.061 35.1002H65.3228L61.2632 28.3164V36.4666H59.7228V25.2138H61.0386L65.724 33.1229L70.3453 25.2138H71.6611L71.6771 36.4666ZM80.1186 36.5953C76.6687 36.5953 74.1334 34.1357 74.1334 30.8402C74.1334 27.5448 76.6687 25.0852 80.1186 25.0852C83.5364 25.0852 86.0717 27.5286 86.0717 30.8402C86.0717 34.1517 83.5364 36.5953 80.1186 36.5953ZM80.1186 35.1645C82.6058 35.1645 84.4671 33.3319 84.4671 30.8402C84.4671 28.3485 82.6058 26.516 80.1186 26.516C77.5994 26.516 75.738 28.3485 75.738 30.8402C75.738 33.3319 77.5994 35.1645 80.1186 35.1645ZM96.082 30.6312C97.3496 30.9848 98.184 31.9333 98.184 33.4284C98.184 35.3574 96.7238 36.4666 93.8837 36.4666H88.5242V25.2138H93.5627C96.1462 25.2138 97.5902 26.307 97.5902 28.1235C97.5902 29.3452 96.9644 30.1972 96.082 30.6312ZM93.4183 26.516H90.1288V30.1168H93.4183C95.055 30.1168 95.9856 29.506 95.9856 28.3164C95.9856 27.1268 95.055 26.516 93.4183 26.516ZM93.8195 35.1645C95.6006 35.1645 96.5634 34.6019 96.5634 33.2998C96.5634 31.9976 95.6006 31.419 93.8195 31.419H90.1288V35.1645H93.8195ZM100.669 36.4666V25.2138H102.273V36.4666H100.669ZM105.636 36.4666V25.2138H107.24V35.068H113.322V36.4666H105.636ZM116.768 35.068H123.314V36.4666H115.164V25.2138H123.09V26.6124H116.768V30.0686H122.4V31.435H116.768V35.068Z" fill="#744BFC"/>
</g>
<defs>
<clipPath id="clip0_44_96">
<rect width="125" height="37" fill="white"/>
</clipPath>
</defs>
</svg>
