<svg width="18" height="18" viewBox="0 0 18 18" fill="none" xmlns="http://www.w3.org/2000/svg">
<g clip-path="url(#clip0_44_104)">
<path d="M16.0615 0H1.93846C0.867878 0 0 0.867878 0 1.93846V16.0615C0 17.1321 0.867878 18 1.93846 18H16.0615C17.1321 18 18 17.1321 18 16.0615V1.93846C18 0.867878 17.1321 0 16.0615 0Z" fill="#744BFC"/>
<path d="M14.9747 5.52506C14.9075 5.25629 14.7705 5.01002 14.5776 4.81108C14.3848 4.61214 14.1429 4.46758 13.8764 4.39197C12.901 4.15384 9.00176 4.15384 9.00176 4.15384C9.00176 4.15384 5.10339 4.15384 4.12847 4.41437C3.86166 4.49018 3.61958 4.63507 3.42672 4.83442C3.23385 5.03376 3.09703 5.28049 3.03009 5.54966C2.85174 6.53882 2.76453 7.54226 2.76955 8.54736C2.76316 9.55994 2.85037 10.5709 3.03009 11.5675C3.10426 11.8279 3.24429 12.0648 3.43669 12.2554C3.62908 12.4459 3.86734 12.5836 4.12847 12.6553C5.10295 12.9158 9.00132 12.9158 9.00132 12.9158C9.00132 12.9158 12.8997 12.9158 13.8742 12.6553C14.1407 12.5797 14.3826 12.4351 14.5754 12.2362C14.7683 12.0372 14.9053 11.791 14.9725 11.5222C15.1486 10.5405 15.2349 9.54475 15.2304 8.54736C15.2368 7.53478 15.1496 6.52378 14.9699 5.52725L14.9747 5.52506Z" fill="white"/>
<path d="M7.7272 10.3983L10.9854 8.54554L7.7272 6.69235V10.3983Z" fill="#744BFC"/>
</g>
<defs>
<clipPath id="clip0_44_104">
<rect width="18" height="18" fill="white"/>
</clipPath>
</defs>
</svg>
